<?xml version="1.0" encoding="iso-8859-1"?>
<!-- Uploaded to: SVG Repo, www.svgrepo.com, Generator: SVG Repo Mixer Tools -->
<!DOCTYPE svg PUBLIC "-//W3C//DTD SVG 1.1//EN" "http://www.w3.org/Graphics/SVG/1.1/DTD/svg11.dtd">
<svg fill="#000000" version="1.1" id="Capa_1" xmlns="http://www.w3.org/2000/svg" xmlns:xlink="http://www.w3.org/1999/xlink" 
	 width="800px" height="800px" viewBox="0 0 44.75 44.75" xml:space="preserve"
	>
<g>
	<path d="M37.409,18.905l-4.946-7.924c-0.548-0.878-1.51-1.411-2.545-1.411H3c-1.657,0-3,1.343-3,3v16.86c0,1.657,1.343,3,3,3h0.787
		c0.758,1.618,2.391,2.75,4.293,2.75s3.534-1.132,4.292-2.75h20.007c0.758,1.618,2.391,2.75,4.293,2.75
		c1.9,0,3.534-1.132,4.291-2.75h0.787c1.656,0,3-1.343,3-3v-2.496C44.75,22.737,41.516,19.272,37.409,18.905z M8.087,32.395
		c-1.084,0-1.963-0.879-1.963-1.963s0.879-1.964,1.963-1.964s1.963,0.88,1.963,1.964S9.171,32.395,8.087,32.395z M26.042,21.001
		V15.57v-2.999h3.876l5.264,8.43H26.042z M36.671,32.395c-1.084,0-1.963-0.879-1.963-1.963s0.879-1.964,1.963-1.964
		s1.963,0.88,1.963,1.964S37.755,32.395,36.671,32.395z"/>
</g>
</svg>